<svg width="128" height="160" viewBox="0 0 128 203" fill="none" xmlns="http://www.w3.org/2000/svg">
<rect width="127.414" height="202.148" rx="8" fill="white"/>
<path d="M88.0001 72H40.0001C37.3334 72 34.6667 74.6667 34.6667 77.3333V114.667C34.6667 117.6 37.0667 120 40.0001 120H88.0001C90.6667 120 93.3334 117.333 93.3334 114.667V77.3333C93.3334 74.6667 90.6667 72 88.0001 72ZM45.3334 109.333L54.6667 97.3333L61.3334 105.36L70.6667 93.3333L82.6667 109.333H45.3334Z" fill="black"/>
<path d="M37.75 143H36.476L31.352 135.23V143H30.078V133.228H31.352L36.476 140.984V133.228H37.75V143ZM43.4078 143.126C42.6891 143.126 42.0358 142.963 41.4478 142.636C40.8691 142.309 40.4118 141.847 40.0758 141.25C39.7491 140.643 39.5858 139.943 39.5858 139.15C39.5858 138.366 39.7538 137.675 40.0898 137.078C40.4351 136.471 40.9018 136.009 41.4898 135.692C42.0778 135.365 42.7358 135.202 43.4638 135.202C44.1918 135.202 44.8498 135.365 45.4378 135.692C46.0258 136.009 46.4878 136.467 46.8238 137.064C47.1691 137.661 47.3418 138.357 47.3418 139.15C47.3418 139.943 47.1644 140.643 46.8098 141.25C46.4644 141.847 45.9931 142.309 45.3958 142.636C44.7984 142.963 44.1358 143.126 43.4078 143.126ZM43.4078 142.006C43.8651 142.006 44.2944 141.899 44.6958 141.684C45.0971 141.469 45.4191 141.147 45.6618 140.718C45.9138 140.289 46.0398 139.766 46.0398 139.15C46.0398 138.534 45.9184 138.011 45.6758 137.582C45.4331 137.153 45.1158 136.835 44.7238 136.63C44.3318 136.415 43.9071 136.308 43.4498 136.308C42.9831 136.308 42.5538 136.415 42.1618 136.63C41.7791 136.835 41.4711 137.153 41.2378 137.582C41.0044 138.011 40.8878 138.534 40.8878 139.15C40.8878 139.775 40.9998 140.303 41.2238 140.732C41.4571 141.161 41.7651 141.483 42.1478 141.698C42.5304 141.903 42.9504 142.006 43.4078 142.006ZM53.6873 134.082C53.4446 134.082 53.2393 133.998 53.0713 133.83C52.9033 133.662 52.8193 133.457 52.8193 133.214C52.8193 132.971 52.9033 132.766 53.0713 132.598C53.2393 132.43 53.4446 132.346 53.6873 132.346C53.9206 132.346 54.1166 132.43 54.2753 132.598C54.4433 132.766 54.5273 132.971 54.5273 133.214C54.5273 133.457 54.4433 133.662 54.2753 133.83C54.1166 133.998 53.9206 134.082 53.6873 134.082ZM54.3033 135.328V143H53.0293V135.328H54.3033ZM65.8406 135.188C66.4379 135.188 66.9699 135.314 67.4366 135.566C67.9032 135.809 68.2719 136.177 68.5426 136.672C68.8132 137.167 68.9486 137.769 68.9486 138.478V143H67.6886V138.66C67.6886 137.895 67.4972 137.311 67.1146 136.91C66.7412 136.499 66.2326 136.294 65.5886 136.294C64.9259 136.294 64.3986 136.509 64.0066 136.938C63.6146 137.358 63.4186 137.969 63.4186 138.772V143H62.1586V138.66C62.1586 137.895 61.9672 137.311 61.5846 136.91C61.2112 136.499 60.7026 136.294 60.0586 136.294C59.3959 136.294 58.8686 136.509 58.4766 136.938C58.0846 137.358 57.8886 137.969 57.8886 138.772V143H56.6146V135.328H57.8886V136.434C58.1406 136.033 58.4766 135.725 58.8966 135.51C59.3259 135.295 59.7972 135.188 60.3106 135.188C60.9546 135.188 61.5239 135.333 62.0186 135.622C62.5132 135.911 62.8819 136.336 63.1246 136.896C63.3392 136.355 63.6939 135.935 64.1886 135.636C64.6832 135.337 65.2339 135.188 65.8406 135.188ZM70.7024 139.136C70.7024 138.352 70.8611 137.666 71.1784 137.078C71.4957 136.481 71.9297 136.019 72.4804 135.692C73.0404 135.365 73.6611 135.202 74.3424 135.202C75.0144 135.202 75.5977 135.347 76.0924 135.636C76.5871 135.925 76.9557 136.289 77.1984 136.728V135.328H78.4864V143H77.1984V141.572C76.9464 142.02 76.5684 142.393 76.0644 142.692C75.5697 142.981 74.9911 143.126 74.3284 143.126C73.6471 143.126 73.0311 142.958 72.4804 142.622C71.9297 142.286 71.4957 141.815 71.1784 141.208C70.8611 140.601 70.7024 139.911 70.7024 139.136ZM77.1984 139.15C77.1984 138.571 77.0817 138.067 76.8484 137.638C76.6151 137.209 76.2977 136.882 75.8964 136.658C75.5044 136.425 75.0704 136.308 74.5944 136.308C74.1184 136.308 73.6844 136.42 73.2924 136.644C72.9004 136.868 72.5877 137.195 72.3544 137.624C72.1211 138.053 72.0044 138.557 72.0044 139.136C72.0044 139.724 72.1211 140.237 72.3544 140.676C72.5877 141.105 72.9004 141.437 73.2924 141.67C73.6844 141.894 74.1184 142.006 74.5944 142.006C75.0704 142.006 75.5044 141.894 75.8964 141.67C76.2977 141.437 76.6151 141.105 76.8484 140.676C77.0817 140.237 77.1984 139.729 77.1984 139.15ZM83.9433 135.202C84.606 135.202 85.1847 135.347 85.6793 135.636C86.1833 135.925 86.5567 136.289 86.7993 136.728V135.328H88.0873V143.168C88.0873 143.868 87.938 144.489 87.6393 145.03C87.3407 145.581 86.9113 146.01 86.3513 146.318C85.8007 146.626 85.1567 146.78 84.4193 146.78C83.4113 146.78 82.5713 146.542 81.8993 146.066C81.2273 145.59 80.8307 144.941 80.7093 144.12H81.9693C82.1093 144.587 82.3987 144.96 82.8373 145.24C83.276 145.529 83.8033 145.674 84.4193 145.674C85.1193 145.674 85.6887 145.455 86.1273 145.016C86.5753 144.577 86.7993 143.961 86.7993 143.168V141.558C86.5473 142.006 86.174 142.379 85.6793 142.678C85.1847 142.977 84.606 143.126 83.9433 143.126C83.262 143.126 82.6413 142.958 82.0813 142.622C81.5307 142.286 81.0967 141.815 80.7793 141.208C80.462 140.601 80.3033 139.911 80.3033 139.136C80.3033 138.352 80.462 137.666 80.7793 137.078C81.0967 136.481 81.5307 136.019 82.0813 135.692C82.6413 135.365 83.262 135.202 83.9433 135.202ZM86.7993 139.15C86.7993 138.571 86.6827 138.067 86.4493 137.638C86.216 137.209 85.8987 136.882 85.4973 136.658C85.1053 136.425 84.6713 136.308 84.1953 136.308C83.7193 136.308 83.2853 136.42 82.8933 136.644C82.5013 136.868 82.1887 137.195 81.9553 137.624C81.722 138.053 81.6053 138.557 81.6053 139.136C81.6053 139.724 81.722 140.237 81.9553 140.676C82.1887 141.105 82.5013 141.437 82.8933 141.67C83.2853 141.894 83.7193 142.006 84.1953 142.006C84.6713 142.006 85.1053 141.894 85.4973 141.67C85.8987 141.437 86.216 141.105 86.4493 140.676C86.6827 140.237 86.7993 139.729 86.7993 139.15ZM97.3803 138.87C97.3803 139.113 97.3663 139.369 97.3383 139.64H91.2063C91.2529 140.396 91.5096 140.989 91.9763 141.418C92.4523 141.838 93.0263 142.048 93.6983 142.048C94.2489 142.048 94.7063 141.922 95.0703 141.67C95.4436 141.409 95.7049 141.063 95.8543 140.634H97.2263C97.0209 141.371 96.6103 141.973 95.9943 142.44C95.3783 142.897 94.6129 143.126 93.6983 143.126C92.9703 143.126 92.3169 142.963 91.7383 142.636C91.1689 142.309 90.7209 141.847 90.3943 141.25C90.0676 140.643 89.9043 139.943 89.9043 139.15C89.9043 138.357 90.0629 137.661 90.3803 137.064C90.6976 136.467 91.1409 136.009 91.7103 135.692C92.2889 135.365 92.9516 135.202 93.6983 135.202C94.4263 135.202 95.0703 135.361 95.6303 135.678C96.1903 135.995 96.6196 136.434 96.9183 136.994C97.2263 137.545 97.3803 138.17 97.3803 138.87ZM96.0643 138.604C96.0643 138.119 95.9569 137.703 95.7423 137.358C95.5276 137.003 95.2336 136.737 94.8603 136.56C94.4963 136.373 94.0903 136.28 93.6423 136.28C92.9983 136.28 92.4476 136.485 91.9903 136.896C91.5423 137.307 91.2856 137.876 91.2203 138.604H96.0643Z" fill="#575757"/>
</svg>
